<mxfile host="app.diagrams.net" modified="2024-06-07T14:24:41.817Z" agent="Mozilla/5.0 (Windows NT 10.0; Win64; x64) AppleWebKit/537.36 (KHTML, like Gecko) Chrome/123.0.0.0 Safari/537.36 OPR/109.0.0.0" etag="wqnDSGWwY9RMwFta1PcK" version="24.5.2" type="device">
  <diagram name="MainMenu" id="a34IwtYSpPxJmK4Jz1gu">
    <mxGraphModel dx="1393" dy="758" grid="1" gridSize="10" guides="1" tooltips="1" connect="1" arrows="1" fold="1" page="1" pageScale="1" pageWidth="850" pageHeight="1100" math="0" shadow="0">
      <root>
        <mxCell id="0" />
        <mxCell id="1" parent="0" />
        <mxCell id="jf7oUOKcc8Sbch9eEMcC-13" style="edgeStyle=orthogonalEdgeStyle;rounded=0;orthogonalLoop=1;jettySize=auto;html=1;exitX=0;exitY=0.5;exitDx=0;exitDy=0;entryX=0.5;entryY=0;entryDx=0;entryDy=0;" edge="1" parent="1" source="jf7oUOKcc8Sbch9eEMcC-1" target="jf7oUOKcc8Sbch9eEMcC-2">
          <mxGeometry relative="1" as="geometry" />
        </mxCell>
        <mxCell id="jf7oUOKcc8Sbch9eEMcC-19" style="edgeStyle=orthogonalEdgeStyle;rounded=0;orthogonalLoop=1;jettySize=auto;html=1;exitX=1;exitY=0.5;exitDx=0;exitDy=0;entryX=0.5;entryY=0;entryDx=0;entryDy=0;" edge="1" parent="1" source="jf7oUOKcc8Sbch9eEMcC-1" target="jf7oUOKcc8Sbch9eEMcC-3">
          <mxGeometry relative="1" as="geometry" />
        </mxCell>
        <mxCell id="jf7oUOKcc8Sbch9eEMcC-26" style="edgeStyle=orthogonalEdgeStyle;rounded=0;orthogonalLoop=1;jettySize=auto;html=1;exitX=0.5;exitY=1;exitDx=0;exitDy=0;entryX=0.5;entryY=0;entryDx=0;entryDy=0;" edge="1" parent="1" source="jf7oUOKcc8Sbch9eEMcC-1" target="jf7oUOKcc8Sbch9eEMcC-4">
          <mxGeometry relative="1" as="geometry">
            <Array as="points">
              <mxPoint x="420" y="290" />
              <mxPoint x="210" y="290" />
            </Array>
          </mxGeometry>
        </mxCell>
        <mxCell id="jf7oUOKcc8Sbch9eEMcC-50" style="edgeStyle=orthogonalEdgeStyle;rounded=0;orthogonalLoop=1;jettySize=auto;html=1;exitX=1;exitY=0;exitDx=0;exitDy=0;entryX=1;entryY=0.5;entryDx=0;entryDy=0;" edge="1" parent="1" source="jf7oUOKcc8Sbch9eEMcC-1" target="jf7oUOKcc8Sbch9eEMcC-5">
          <mxGeometry relative="1" as="geometry">
            <Array as="points">
              <mxPoint x="448" y="40" />
              <mxPoint x="820" y="40" />
              <mxPoint x="820" y="500" />
            </Array>
          </mxGeometry>
        </mxCell>
        <mxCell id="jf7oUOKcc8Sbch9eEMcC-77" style="edgeStyle=orthogonalEdgeStyle;rounded=0;orthogonalLoop=1;jettySize=auto;html=1;exitX=0.5;exitY=1;exitDx=0;exitDy=0;entryX=1;entryY=0.5;entryDx=0;entryDy=0;" edge="1" parent="1" source="jf7oUOKcc8Sbch9eEMcC-1" target="jf7oUOKcc8Sbch9eEMcC-6">
          <mxGeometry relative="1" as="geometry">
            <Array as="points">
              <mxPoint x="420" y="750" />
              <mxPoint x="360" y="750" />
            </Array>
          </mxGeometry>
        </mxCell>
        <mxCell id="jf7oUOKcc8Sbch9eEMcC-1" value="1" style="ellipse;whiteSpace=wrap;html=1;aspect=fixed;" vertex="1" parent="1">
          <mxGeometry x="380" y="110" width="80" height="80" as="geometry" />
        </mxCell>
        <mxCell id="jf7oUOKcc8Sbch9eEMcC-43" style="edgeStyle=orthogonalEdgeStyle;rounded=0;orthogonalLoop=1;jettySize=auto;html=1;exitX=0;exitY=0.5;exitDx=0;exitDy=0;entryX=0;entryY=0;entryDx=0;entryDy=0;" edge="1" parent="1" source="jf7oUOKcc8Sbch9eEMcC-2" target="jf7oUOKcc8Sbch9eEMcC-1">
          <mxGeometry relative="1" as="geometry">
            <Array as="points">
              <mxPoint x="60" y="290" />
              <mxPoint x="60" y="90" />
              <mxPoint x="392" y="90" />
            </Array>
          </mxGeometry>
        </mxCell>
        <mxCell id="jf7oUOKcc8Sbch9eEMcC-2" value="2" style="ellipse;whiteSpace=wrap;html=1;aspect=fixed;" vertex="1" parent="1">
          <mxGeometry x="80" y="250" width="80" height="80" as="geometry" />
        </mxCell>
        <mxCell id="jf7oUOKcc8Sbch9eEMcC-45" style="edgeStyle=orthogonalEdgeStyle;rounded=0;orthogonalLoop=1;jettySize=auto;html=1;exitX=0;exitY=0.5;exitDx=0;exitDy=0;entryX=1;entryY=1;entryDx=0;entryDy=0;" edge="1" parent="1" source="jf7oUOKcc8Sbch9eEMcC-3" target="jf7oUOKcc8Sbch9eEMcC-1">
          <mxGeometry relative="1" as="geometry" />
        </mxCell>
        <mxCell id="jf7oUOKcc8Sbch9eEMcC-3" value="3" style="ellipse;whiteSpace=wrap;html=1;aspect=fixed;" vertex="1" parent="1">
          <mxGeometry x="690" y="250" width="80" height="80" as="geometry" />
        </mxCell>
        <mxCell id="jf7oUOKcc8Sbch9eEMcC-41" style="edgeStyle=orthogonalEdgeStyle;rounded=0;orthogonalLoop=1;jettySize=auto;html=1;exitX=0;exitY=0.5;exitDx=0;exitDy=0;entryX=0;entryY=0;entryDx=0;entryDy=0;" edge="1" parent="1" source="jf7oUOKcc8Sbch9eEMcC-4" target="jf7oUOKcc8Sbch9eEMcC-1">
          <mxGeometry relative="1" as="geometry">
            <Array as="points">
              <mxPoint x="30" y="500" />
              <mxPoint x="30" y="40" />
              <mxPoint x="392" y="40" />
            </Array>
          </mxGeometry>
        </mxCell>
        <mxCell id="jf7oUOKcc8Sbch9eEMcC-4" value="4" style="ellipse;whiteSpace=wrap;html=1;aspect=fixed;" vertex="1" parent="1">
          <mxGeometry x="170" y="460" width="80" height="80" as="geometry" />
        </mxCell>
        <mxCell id="jf7oUOKcc8Sbch9eEMcC-78" style="edgeStyle=orthogonalEdgeStyle;rounded=0;orthogonalLoop=1;jettySize=auto;html=1;exitX=0;exitY=0.5;exitDx=0;exitDy=0;entryX=0.5;entryY=1;entryDx=0;entryDy=0;" edge="1" parent="1" source="jf7oUOKcc8Sbch9eEMcC-5" target="jf7oUOKcc8Sbch9eEMcC-1">
          <mxGeometry relative="1" as="geometry" />
        </mxCell>
        <mxCell id="jf7oUOKcc8Sbch9eEMcC-5" value="5" style="ellipse;whiteSpace=wrap;html=1;aspect=fixed;" vertex="1" parent="1">
          <mxGeometry x="580" y="460" width="80" height="80" as="geometry" />
        </mxCell>
        <mxCell id="jf7oUOKcc8Sbch9eEMcC-56" style="edgeStyle=orthogonalEdgeStyle;rounded=0;orthogonalLoop=1;jettySize=auto;html=1;exitX=0;exitY=0.5;exitDx=0;exitDy=0;entryX=1;entryY=0;entryDx=0;entryDy=0;" edge="1" parent="1" source="jf7oUOKcc8Sbch9eEMcC-6" target="jf7oUOKcc8Sbch9eEMcC-1">
          <mxGeometry relative="1" as="geometry">
            <Array as="points">
              <mxPoint x="10" y="750" />
              <mxPoint x="10" y="20" />
              <mxPoint x="448" y="20" />
            </Array>
          </mxGeometry>
        </mxCell>
        <mxCell id="jf7oUOKcc8Sbch9eEMcC-6" value="6" style="ellipse;whiteSpace=wrap;html=1;aspect=fixed;" vertex="1" parent="1">
          <mxGeometry x="270" y="710" width="80" height="80" as="geometry" />
        </mxCell>
        <mxCell id="jf7oUOKcc8Sbch9eEMcC-8" value="" style="endArrow=classic;html=1;rounded=0;entryX=0.5;entryY=0;entryDx=0;entryDy=0;" edge="1" parent="1" target="jf7oUOKcc8Sbch9eEMcC-1">
          <mxGeometry width="50" height="50" relative="1" as="geometry">
            <mxPoint x="420" y="40" as="sourcePoint" />
            <mxPoint x="424" y="70" as="targetPoint" />
          </mxGeometry>
        </mxCell>
        <mxCell id="jf7oUOKcc8Sbch9eEMcC-14" value="if user wants to create journal entries" style="text;html=1;align=center;verticalAlign=middle;resizable=0;points=[];autosize=1;strokeColor=none;fillColor=none;" vertex="1" parent="1">
          <mxGeometry x="130" y="110" width="220" height="30" as="geometry" />
        </mxCell>
        <mxCell id="jf7oUOKcc8Sbch9eEMcC-16" value="if user wants to go&amp;nbsp;&lt;div&gt;back to the main menu&lt;/div&gt;" style="text;html=1;align=center;verticalAlign=middle;resizable=0;points=[];autosize=1;strokeColor=none;fillColor=none;" vertex="1" parent="1">
          <mxGeometry x="240" y="240" width="140" height="40" as="geometry" />
        </mxCell>
        <mxCell id="jf7oUOKcc8Sbch9eEMcC-17" value="" style="curved=1;endArrow=classic;html=1;rounded=0;exitX=0;exitY=1;exitDx=0;exitDy=0;entryX=1;entryY=1;entryDx=0;entryDy=0;" edge="1" parent="1" source="jf7oUOKcc8Sbch9eEMcC-2" target="jf7oUOKcc8Sbch9eEMcC-2">
          <mxGeometry width="50" height="50" relative="1" as="geometry">
            <mxPoint x="160" y="480" as="sourcePoint" />
            <mxPoint x="210" y="430" as="targetPoint" />
            <Array as="points">
              <mxPoint x="70" y="390" />
              <mxPoint x="160" y="390" />
            </Array>
          </mxGeometry>
        </mxCell>
        <mxCell id="jf7oUOKcc8Sbch9eEMcC-18" value="if user wants to keep&amp;nbsp;&lt;div&gt;creating journal entries&lt;/div&gt;" style="text;html=1;align=center;verticalAlign=middle;resizable=0;points=[];autosize=1;strokeColor=none;fillColor=none;" vertex="1" parent="1">
          <mxGeometry x="50" y="400" width="140" height="40" as="geometry" />
        </mxCell>
        <mxCell id="jf7oUOKcc8Sbch9eEMcC-21" value="if user wants to read journal entries" style="text;html=1;align=center;verticalAlign=middle;resizable=0;points=[];autosize=1;strokeColor=none;fillColor=none;" vertex="1" parent="1">
          <mxGeometry x="480" y="110" width="210" height="30" as="geometry" />
        </mxCell>
        <mxCell id="jf7oUOKcc8Sbch9eEMcC-22" value="if user wants to go back to the main menu" style="text;html=1;align=center;verticalAlign=middle;resizable=0;points=[];autosize=1;strokeColor=none;fillColor=none;" vertex="1" parent="1">
          <mxGeometry x="450" y="250" width="250" height="30" as="geometry" />
        </mxCell>
        <mxCell id="jf7oUOKcc8Sbch9eEMcC-24" value="" style="curved=1;endArrow=classic;html=1;rounded=0;exitX=0;exitY=1;exitDx=0;exitDy=0;entryX=1;entryY=1;entryDx=0;entryDy=0;" edge="1" parent="1" source="jf7oUOKcc8Sbch9eEMcC-3" target="jf7oUOKcc8Sbch9eEMcC-3">
          <mxGeometry width="50" height="50" relative="1" as="geometry">
            <mxPoint x="652" y="370" as="sourcePoint" />
            <mxPoint x="708" y="370" as="targetPoint" />
            <Array as="points">
              <mxPoint x="690" y="400" />
              <mxPoint x="790" y="390" />
            </Array>
          </mxGeometry>
        </mxCell>
        <mxCell id="jf7oUOKcc8Sbch9eEMcC-25" value="if user wants to keep&amp;nbsp;&lt;div&gt;reading journal entries&lt;/div&gt;" style="text;html=1;align=center;verticalAlign=middle;resizable=0;points=[];autosize=1;strokeColor=none;fillColor=none;" vertex="1" parent="1">
          <mxGeometry x="670" y="410" width="140" height="40" as="geometry" />
        </mxCell>
        <mxCell id="jf7oUOKcc8Sbch9eEMcC-28" value="if user wants to view journal entries" style="text;html=1;align=center;verticalAlign=middle;resizable=0;points=[];autosize=1;strokeColor=none;fillColor=none;" vertex="1" parent="1">
          <mxGeometry x="115" y="50" width="210" height="30" as="geometry" />
        </mxCell>
        <mxCell id="jf7oUOKcc8Sbch9eEMcC-30" value="if user wants to go&amp;nbsp;&lt;div&gt;back&amp;nbsp;&lt;span style=&quot;background-color: initial;&quot;&gt;to the main menu&lt;/span&gt;&lt;/div&gt;" style="text;html=1;align=center;verticalAlign=middle;resizable=0;points=[];autosize=1;strokeColor=none;fillColor=none;" vertex="1" parent="1">
          <mxGeometry x="30" y="510" width="140" height="40" as="geometry" />
        </mxCell>
        <mxCell id="jf7oUOKcc8Sbch9eEMcC-35" value="" style="curved=1;endArrow=classic;html=1;rounded=0;exitX=0;exitY=1;exitDx=0;exitDy=0;entryX=1;entryY=1;entryDx=0;entryDy=0;" edge="1" parent="1" source="jf7oUOKcc8Sbch9eEMcC-4" target="jf7oUOKcc8Sbch9eEMcC-4">
          <mxGeometry width="50" height="50" relative="1" as="geometry">
            <mxPoint x="112" y="568" as="sourcePoint" />
            <mxPoint x="168" y="568" as="targetPoint" />
            <Array as="points">
              <mxPoint x="180" y="600" />
              <mxPoint x="250" y="600" />
            </Array>
          </mxGeometry>
        </mxCell>
        <mxCell id="jf7oUOKcc8Sbch9eEMcC-36" value="if user wants to keep&amp;nbsp;&lt;div&gt;viewing journal entries&lt;/div&gt;" style="text;html=1;align=center;verticalAlign=middle;resizable=0;points=[];autosize=1;strokeColor=none;fillColor=none;" vertex="1" parent="1">
          <mxGeometry x="140" y="610" width="140" height="40" as="geometry" />
        </mxCell>
        <mxCell id="jf7oUOKcc8Sbch9eEMcC-49" value="if user wants to go&amp;nbsp;&lt;div&gt;back&amp;nbsp;&lt;span style=&quot;background-color: initial;&quot;&gt;to the main menu&lt;/span&gt;&lt;/div&gt;" style="text;html=1;align=center;verticalAlign=middle;resizable=0;points=[];autosize=1;strokeColor=none;fillColor=none;" vertex="1" parent="1">
          <mxGeometry x="425" y="450" width="140" height="40" as="geometry" />
        </mxCell>
        <mxCell id="jf7oUOKcc8Sbch9eEMcC-51" value="" style="curved=1;endArrow=classic;html=1;rounded=0;exitX=0;exitY=1;exitDx=0;exitDy=0;entryX=1;entryY=1;entryDx=0;entryDy=0;" edge="1" parent="1" source="jf7oUOKcc8Sbch9eEMcC-5" target="jf7oUOKcc8Sbch9eEMcC-5">
          <mxGeometry width="50" height="50" relative="1" as="geometry">
            <mxPoint x="622" y="590" as="sourcePoint" />
            <mxPoint x="678" y="590" as="targetPoint" />
            <Array as="points">
              <mxPoint x="592" y="610" />
              <mxPoint x="670" y="610" />
            </Array>
          </mxGeometry>
        </mxCell>
        <mxCell id="jf7oUOKcc8Sbch9eEMcC-52" value="if user wants to keep&amp;nbsp;&lt;div&gt;opening and editing&amp;nbsp;&lt;/div&gt;&lt;div&gt;journal entries&lt;/div&gt;" style="text;html=1;align=center;verticalAlign=middle;resizable=0;points=[];autosize=1;strokeColor=none;fillColor=none;" vertex="1" parent="1">
          <mxGeometry x="560" y="610" width="140" height="60" as="geometry" />
        </mxCell>
        <mxCell id="jf7oUOKcc8Sbch9eEMcC-57" value="if user wants to go back to the main menu" style="text;html=1;align=center;verticalAlign=middle;resizable=0;points=[];autosize=1;strokeColor=none;fillColor=none;" vertex="1" parent="1">
          <mxGeometry x="10" y="760" width="250" height="30" as="geometry" />
        </mxCell>
        <mxCell id="jf7oUOKcc8Sbch9eEMcC-64" value="if user wants to open or edit journal entries" style="text;html=1;align=center;verticalAlign=middle;resizable=0;points=[];autosize=1;strokeColor=none;fillColor=none;rotation=-90;" vertex="1" parent="1">
          <mxGeometry x="270" y="470" width="250" height="30" as="geometry" />
        </mxCell>
        <mxCell id="jf7oUOKcc8Sbch9eEMcC-83" value="" style="curved=1;endArrow=classic;html=1;rounded=0;exitX=0;exitY=1;exitDx=0;exitDy=0;entryX=1;entryY=1;entryDx=0;entryDy=0;" edge="1" parent="1" source="jf7oUOKcc8Sbch9eEMcC-6" target="jf7oUOKcc8Sbch9eEMcC-6">
          <mxGeometry width="50" height="50" relative="1" as="geometry">
            <mxPoint x="616.7157287525379" y="778.2842712474621" as="sourcePoint" />
            <mxPoint x="673.2842712474621" y="778.2842712474621" as="targetPoint" />
            <Array as="points">
              <mxPoint x="282" y="840" />
              <mxPoint x="350" y="850" />
            </Array>
          </mxGeometry>
        </mxCell>
        <mxCell id="jf7oUOKcc8Sbch9eEMcC-84" value="if user wants to keep&lt;div&gt;deleting journal entries&lt;/div&gt;" style="text;html=1;align=center;verticalAlign=middle;resizable=0;points=[];autosize=1;strokeColor=none;fillColor=none;" vertex="1" parent="1">
          <mxGeometry x="250" y="850" width="140" height="40" as="geometry" />
        </mxCell>
      </root>
    </mxGraphModel>
  </diagram>
</mxfile>
